<svg width="268" height="56" viewBox="0 0 268 56" fill="none" xmlns="http://www.w3.org/2000/svg">
<path d="M79.9629 26.6908L84.4993 18.3131V26.6908H87.5541V14.0693H84.0969L79.5604 22.4471V14.0693H76.5057V26.6908H79.9629Z" fill="white"/>
<path d="M100.855 26.6908V14.0693H97.8002V18.9716H93.1723V14.0693H90.1175V26.6908H93.1723V21.5508H97.8002V26.6908H100.855Z" fill="white"/>
<path d="M113.048 16.6485V14.0693H102.493V16.6485H106.243V26.6908H109.298V16.6485H113.048Z" fill="white"/>
<path d="M123.807 26.6908V24.1848H117.752V21.4593H122.252V19.0082H117.752V16.5753H123.734V14.0693H114.697V26.6908H123.807Z" fill="white"/>
<path d="M136.123 18.368C136.123 15.679 134.733 14.0693 131.752 14.0693H125.88V26.6908H128.935V22.5568H131.752C134.733 22.5568 136.123 21.0386 136.123 18.368ZM132.977 18.6606C132.977 19.5021 132.447 20.0143 131.404 20.0143H128.935V16.6119H131.404C132.465 16.6119 132.977 17.1424 132.977 18.0387V18.6606Z" fill="white"/>
<path d="M148.639 26.6908V14.0693H145.585V18.9716H140.957V14.0693H137.902V26.6908H140.957V21.5508H145.585V26.6908H148.639Z" fill="white"/>
<path d="M160.302 26.6908V24.1848H154.247V21.4593H158.747V19.0082H154.247V16.5753H160.229V14.0693H151.192V26.6908H160.302Z" fill="white"/>
<path d="M172.015 16.6485V14.0693H161.46V16.6485H165.21V26.6908H168.265V16.6485H172.015Z" fill="white"/>
<path d="M188.481 18.368C188.481 15.679 187.091 14.0693 184.109 14.0693H178.237V26.6908H181.292V22.5568H184.109C187.091 22.5568 188.481 21.0386 188.481 18.368ZM185.335 18.6606C185.335 19.5021 184.804 20.0143 183.761 20.0143H181.292V16.6119H183.761C184.822 16.6119 185.335 17.1424 185.335 18.0387V18.6606Z" fill="white"/>
<path d="M199.369 26.6908V24.1848H193.314V21.4593H197.814V19.0082H193.314V16.5753H199.296V14.0693H190.259V26.6908H199.369Z" fill="white"/>
<path d="M214.411 14.0693V24.1117H210.99V14.0693H207.917V24.1117H204.497V14.0693H201.442V26.6908H217.466V14.0693H214.411Z" fill="white"/>
<path d="M229.129 26.6908V24.1848H223.074V21.4593H227.574V19.0082H223.074V16.5753H229.056V14.0693H220.02V26.6908H229.129Z" fill="white"/>
<path d="M241.939 26.6908V14.0693H238.885V18.9716H234.257V14.0693H231.202V26.6908H234.257V21.5508H238.885V26.6908H241.939Z" fill="white"/>
<path d="M247.95 26.6908L252.486 18.3131V26.6908H255.541V14.0693H252.084L247.547 22.4471V14.0693H244.492V26.6908H247.95Z" fill="white"/>
<path d="M257.83 18.2033C257.83 19.9411 258.562 21.2032 259.952 21.8435L257.555 26.6908H260.775L262.933 22.319H264.927V26.6908H268V14.0693H262.421C259.494 14.0693 257.83 15.6607 257.83 18.2033ZM260.994 17.9107C260.994 16.9961 261.598 16.5388 262.622 16.5388H264.927V19.8679H262.622C261.58 19.8679 260.994 19.3557 260.994 18.4228V17.9107Z" fill="white"/>
<path d="M86.6438 38.8564L84.5493 45.1671H85.3267L85.9212 43.3653H88.6559L89.2961 45.1671H90.1192L87.8876 38.8564H86.6438ZM87.2474 39.3777L88.4181 42.6977H86.1407L87.2474 39.3777Z" fill="white"/>
<path d="M91.0496 38.8564V45.1671H91.8727V39.5149H94.6348V38.8564H91.0496Z" fill="white"/>
<path d="M99.5645 45.1671V44.5086H96.4457V42.2953H98.8786V41.6367H96.4457V39.5149H99.4913V38.8564H95.6226V45.1671H99.5645Z" fill="white"/>
<path d="M105.43 45.1671V38.8564H104.607V41.6367H101.653V38.8564H100.83V45.1671H101.653V42.2953H104.607V45.1671H105.43Z" fill="white"/>
<path d="M111.281 39.5149V38.8564H106.415V39.5149H108.437V45.1671H109.26V39.5149H111.281Z" fill="white"/>
<path d="M114.416 45.2586C115.842 45.2586 116.647 44.6915 116.858 43.3745H115.998C115.833 44.2891 115.312 44.6001 114.416 44.6001C113.163 44.6001 112.641 43.7129 112.641 42.2953V41.7099C112.641 40.2648 113.199 39.4234 114.416 39.4234C115.367 39.4234 115.852 39.8258 115.989 40.6947H116.848C116.647 39.3594 115.943 38.7649 114.416 38.7649C112.632 38.7649 111.782 39.9356 111.782 42.0117C111.782 44.0879 112.632 45.2586 114.416 45.2586Z" fill="white"/>
<path d="M122.356 39.5149V38.8564H117.491V39.5149H119.512V45.1671H120.335V39.5149H122.356Z" fill="white"/>
<path d="M127.801 43.4111C127.801 42.5148 127.334 42.0392 126.621 41.8745C127.243 41.6642 127.572 41.1429 127.572 40.4295C127.572 39.3685 126.923 38.8564 125.706 38.8564H123.346V45.1671H125.852C127.151 45.1671 127.801 44.5726 127.801 43.4111ZM126.95 43.1733V43.5666C126.95 44.2068 126.538 44.5086 125.779 44.5086H124.17V42.2587H125.779C126.63 42.2587 126.95 42.6154 126.95 43.1733ZM126.712 40.3563V40.7038C126.712 41.3166 126.365 41.6367 125.715 41.6367H124.17V39.5149H125.715C126.355 39.5149 126.712 39.7984 126.712 40.3563Z" fill="white"/>
<path d="M134.24 42.0117C134.24 39.8533 133.362 38.7649 131.487 38.7649C129.612 38.7649 128.743 39.8533 128.743 42.0117C128.743 44.161 129.612 45.2586 131.487 45.2586C133.362 45.2586 134.24 44.161 134.24 42.0117ZM133.38 42.2953C133.38 43.7678 132.804 44.6001 131.487 44.6001C130.17 44.6001 129.603 43.7678 129.603 42.2953V41.7099C129.603 40.2465 130.17 39.4234 131.487 39.4234C132.804 39.4234 133.38 40.2465 133.38 41.7099V42.2953Z" fill="white"/>
<path d="M141.995 40.8136C141.995 39.6063 141.355 38.8564 139.947 38.8564H137.825V45.1671H138.648V42.7251H139.947C141.355 42.7251 141.995 42.0026 141.995 40.8136ZM141.136 41.0057C141.136 41.6642 140.742 42.03 139.892 42.03H138.648V39.5515H139.892C140.742 39.5515 141.136 39.9173 141.136 40.6124V41.0057Z" fill="white"/>
<path d="M147.108 45.1671V44.5086H143.989V42.2953H146.422V41.6367H143.989V39.5149H147.035V38.8564H143.166V45.1671H147.108Z" fill="white"/>
<path d="M152.544 40.777C152.544 39.588 151.958 38.8564 150.495 38.8564H148.373V45.1671H149.196V42.652H150.486L151.848 45.1671H152.8L151.364 42.5422C152.196 42.3044 152.544 41.6733 152.544 40.777ZM151.684 40.9599C151.684 41.6002 151.291 41.9569 150.44 41.9569H149.196V39.5515H150.44C151.291 39.5515 151.684 39.9081 151.684 40.5667V40.9599Z" fill="white"/>
<path d="M154.787 45.1671V42.3776H157.193V41.7099H154.787V39.5149H157.741V38.8564H153.964V45.1671H154.787Z" fill="white"/>
<path d="M164.071 42.0117C164.071 39.8533 163.193 38.7649 161.318 38.7649C159.443 38.7649 158.575 39.8533 158.575 42.0117C158.575 44.161 159.443 45.2586 161.318 45.2586C163.193 45.2586 164.071 44.161 164.071 42.0117ZM163.212 42.2953C163.212 43.7678 162.635 44.6001 161.318 44.6001C160.001 44.6001 159.434 43.7678 159.434 42.2953V41.7099C159.434 40.2465 160.001 39.4234 161.318 39.4234C162.635 39.4234 163.212 40.2465 163.212 41.7099V42.2953Z" fill="white"/>
<path d="M169.541 40.777C169.541 39.588 168.955 38.8564 167.492 38.8564H165.37V45.1671H166.193V42.652H167.483L168.845 45.1671H169.797L168.361 42.5422C169.193 42.3044 169.541 41.6733 169.541 40.777ZM168.681 40.9599C168.681 41.6002 168.287 41.9569 167.437 41.9569H166.193V39.5515H167.437C168.287 39.5515 168.681 39.9081 168.681 40.5667V40.9599Z" fill="white"/>
<path d="M172.315 38.8564H170.961V45.1671H171.739V39.5332L173.495 44.161H174.501L176.266 39.5332V45.1671H177.089V38.8564H175.79L174.043 43.4294L172.315 38.8564Z" fill="white"/>
<path d="M180.114 38.8564L178.019 45.1671H178.797L179.391 43.3653H182.126L182.766 45.1671H183.589L181.357 38.8564H180.114ZM180.717 39.3777L181.888 42.6977H179.611L180.717 39.3777Z" fill="white"/>
<path d="M185.599 38.8564H184.519V45.1671H185.306V39.9722L188.086 45.1671H189.175V38.8564H188.388V44.0787L185.599 38.8564Z" fill="white"/>
<path d="M193.104 45.2586C194.53 45.2586 195.335 44.6915 195.546 43.3745H194.686C194.521 44.2891 194 44.6001 193.104 44.6001C191.851 44.6001 191.329 43.7129 191.329 42.2953V41.7099C191.329 40.2648 191.887 39.4234 193.104 39.4234C194.055 39.4234 194.54 39.8258 194.677 40.6947H195.536C195.335 39.3594 194.631 38.7649 193.104 38.7649C191.32 38.7649 190.47 39.9356 190.47 42.0117C190.47 44.0879 191.32 45.2586 193.104 45.2586Z" fill="white"/>
<path d="M200.742 45.1671V44.5086H197.624V42.2953H200.056V41.6367H197.624V39.5149H200.669V38.8564H196.8V45.1671H200.742Z" fill="white"/>
<path d="M205.648 38.8564H204.294V45.1671H205.072V39.5332L206.828 44.161H207.834L209.599 39.5332V45.1671H210.422V38.8564H209.123L207.376 43.4294L205.648 38.8564Z" fill="white"/>
<path d="M213.447 38.8564L211.352 45.1671H212.13L212.724 43.3653H215.459L216.099 45.1671H216.922L214.69 38.8564H213.447ZM214.05 39.3777L215.221 42.6977H212.944L214.05 39.3777Z" fill="white"/>
<path d="M222.023 40.8136C222.023 39.6063 221.383 38.8564 219.974 38.8564H217.852V45.1671H218.676V42.7251H219.974C221.383 42.7251 222.023 42.0026 222.023 40.8136ZM221.163 41.0057C221.163 41.6642 220.77 42.03 219.919 42.03H218.676V39.5515H219.919C220.77 39.5515 221.163 39.9173 221.163 40.6124V41.0057Z" fill="white"/>
<path d="M224.017 38.8564H223.193V45.1671H224.017V42.3501H224.648L226.834 45.1671H227.84L225.343 41.9569L227.638 38.8564H226.706L224.648 41.655H224.017V38.8564Z" fill="white"/>
<path d="M232.78 45.1671V44.5086H229.661V42.2953H232.094V41.6367H229.661V39.5149H232.707V38.8564H228.838V45.1671H232.78Z" fill="white"/>
<path d="M238.289 39.5149V38.8564H233.424V39.5149H235.445V45.1671H236.268V39.5149H238.289Z" fill="white"/>
<path d="M240.231 45.1671L243.148 39.9081V45.1671H243.971V38.8564H243.011L240.103 44.1153V38.8564H239.279V45.1671H240.231Z" fill="white"/>
<path d="M250.186 45.1671V38.8564H249.362V41.6367H246.408V38.8564H245.585V45.1671H246.408V42.2953H249.362V45.1671H250.186Z" fill="white"/>
<path d="M251.793 38.8564V45.1671H252.616V39.5149H255.378V38.8564H251.793Z" fill="white"/>
<path d="M256.988 38.8564L254.894 45.1671H255.671L256.266 43.3653H259.001L259.641 45.1671H260.464L258.232 38.8564H256.988ZM257.592 39.3777L258.763 42.6977H256.485L257.592 39.3777Z" fill="white"/>
<path d="M35.1586 6.3567C35.0206 6.1109 34.2693 4.82044 32.644 4.35957C31.0493 3.89869 29.7614 4.55928 29.5007 4.69754C29.4547 4.72827 29.4087 4.74363 29.3627 4.77436C29.7 4.26739 30.1907 3.65289 30.8654 3.02303C30.8654 3.02303 31.8773 2.07055 33.104 1.3946C38.2099 -1.43211 44.5577 0.180957 47.7317 4.94334C47.7163 4.94334 47.7163 4.95871 47.701 4.95871C53.8189 15.9122 59.9367 26.8503 66.0546 37.8038C61.5467 37.7885 57.0388 37.7731 52.5309 37.7577C50.7369 34.5162 48.943 31.2747 47.149 28.0332C45.8764 25.7289 44.6037 23.4398 43.3311 21.1355L35.1586 6.3567Z" fill="white"/>
<path d="M29.3936 4.74292L29.4549 4.71219C31.4789 3.59073 34.024 4.32884 35.1586 6.3567C36.1399 8.13875 37.1214 9.90473 38.1027 11.6868C35.0515 16.7257 31.9849 21.7492 28.9336 26.7882C26.833 22.9782 24.717 19.1683 22.6164 15.3738C24.8704 11.825 27.1396 8.29166 29.3936 4.74292Z" fill="white"/>
<path d="M30.896 49.6172C31.034 49.863 31.7853 51.1535 33.4106 51.6144C35.0053 52.0752 36.2932 51.4147 36.5539 51.2764C36.5999 51.2457 36.6459 51.2303 36.6919 51.1996C36.3546 51.7066 35.8639 52.321 35.1893 52.9509C35.1893 52.9509 34.1773 53.9034 32.9506 54.5793C27.8447 57.4061 21.4969 55.793 18.3229 51.0306C18.3383 51.0306 18.3383 51.0152 18.3536 51.0152C12.2357 40.0617 6.11787 29.1236 0 18.1701C4.50791 18.1855 9.01581 18.2008 13.5237 18.2162C15.3177 21.4577 17.1116 24.6992 18.9056 27.9407C20.1782 30.2451 21.4509 32.5341 22.7235 34.8385L30.896 49.6172Z" fill="white"/>
<path d="M36.6612 51.2308L36.5998 51.2616C34.5759 52.383 32.0307 51.6451 30.896 49.6172C29.9147 47.8352 28.9333 46.069 27.952 44.287C31.0033 39.2481 34.0699 34.2091 37.1212 29.1856C39.2218 32.9955 41.3377 36.8054 43.4384 40.6C41.1844 44.1487 38.9151 47.6821 36.6612 51.2308Z" fill="white"/>
</svg>
