<svg width="44" height="44" viewBox="0 0 44 44" fill="none" xmlns="http://www.w3.org/2000/svg">
<ellipse cx="22" cy="22" rx="22" ry="22" transform="rotate(-90 22 22)" fill="white"/>
<path d="M32.8412 26.6369C32.2525 25.6846 30.699 25.2644 29.8253 25.0986C28.2308 24.7961 26.1759 24.8191 25.1798 25.5525C24.852 25.7941 24.6887 26.2934 24.6505 27.1714C24.6455 27.2871 24.6433 27.4 24.6427 27.5071C22.9503 26.8653 21.3881 25.9079 20.0548 24.6952L19.4692 24.1236C18.2289 22.8236 17.2492 21.3006 16.5922 19.651C16.7021 19.6505 16.818 19.6483 16.9368 19.6434C17.8342 19.6062 18.3446 19.447 18.5915 19.1274C19.3396 18.1593 19.3667 16.1604 19.0617 14.6088C18.8926 13.7484 18.4623 12.2187 17.4812 11.6406C16.5051 11.0654 14.9965 11.2041 14.3931 11.2906C13.1484 11.4687 12.1128 11.9006 11.6229 12.4456C11.196 12.9206 11.0461 14.2761 11.0014 14.8368C11.0002 14.8515 10.9998 14.8667 11.0001 14.8815C11.0735 19.4485 12.8628 23.8096 16.0382 27.1598C16.0425 27.1642 16.0468 27.1705 16.0512 27.1748L16.9414 28.0476C16.9458 28.0519 16.9502 28.0636 16.9548 28.0676C20.3856 31.1671 24.8502 32.8822 29.5263 33.0002C29.5288 33.0002 29.5313 33.0002 29.5338 33.0002C29.5462 33.0002 29.5585 32.9849 29.5709 32.9841C30.1445 32.9405 31.531 32.7795 32.0166 32.3635C32.5753 31.8849 33.0178 30.8729 33.2005 29.6564C33.2891 29.0665 33.4313 27.5916 32.8412 26.6369ZM32.2499 29.5187C32.1063 30.4747 31.7586 31.3323 31.3852 31.6522C31.2178 31.7876 30.3493 31.9616 29.5188 32.0269C25.0902 31.9536 20.8629 30.2985 17.6124 27.3646L16.7355 26.5084C13.7312 23.3357 12.0365 19.2102 11.9614 14.8879C12.0278 14.0791 12.2055 13.2329 12.3437 13.0697C12.6721 12.7043 13.5515 12.3645 14.532 12.2241C15.5604 12.0769 16.5012 12.1632 16.9869 12.4495C17.4556 12.7257 17.8892 13.6216 18.1184 14.7876C18.4192 16.3179 18.2975 17.9262 17.8363 18.544C17.65 18.6724 16.8056 18.7412 16.0135 18.6947C15.9275 18.6734 15.8346 18.6748 15.7442 18.7044C15.6653 18.7303 15.5978 18.7744 15.5448 18.8303C15.4685 18.9073 15.4183 19.01 15.4098 19.1256C15.4024 19.2252 15.4274 19.3197 15.4756 19.3996C16.1398 21.3062 17.2025 23.072 18.5846 24.573C18.601 24.5986 18.6201 24.6231 18.6419 24.646C18.7843 24.795 18.9298 24.9412 19.0781 25.0843C19.225 25.2294 19.3749 25.3717 19.528 25.511C19.5515 25.5324 19.5765 25.551 19.6027 25.5669C21.1396 26.9157 22.9477 27.9531 24.8995 28.6013C24.9808 28.6485 25.0769 28.6728 25.1784 28.6654C25.2969 28.6569 25.402 28.6067 25.4805 28.5308C25.4885 28.5234 25.4957 28.5152 25.5033 28.5073C25.5053 28.505 25.5074 28.5027 25.5096 28.5003C25.5519 28.4536 25.5864 28.3989 25.6077 28.3357C25.6375 28.2471 25.6387 28.1562 25.6169 28.0719C25.5696 27.3007 25.6396 26.479 25.7704 26.2975C26.4083 25.8434 28.0665 25.7259 29.6432 26.025C30.8281 26.2499 31.7389 26.6719 32.0199 27.1265C32.3123 27.5995 32.4004 28.5162 32.2499 29.5187Z" fill="#D13A52" stroke="#D13A52" stroke-width="0.5"/>
<path d="M23.8619 11.0477C28.8691 11.0532 32.9268 15.0373 32.9324 19.9536C32.9324 20.2429 33.1713 20.4775 33.466 20.4775C33.7607 20.4775 33.9995 20.2429 33.9995 19.9536C33.9933 14.4589 29.4582 10.006 23.8619 10C23.5672 10 23.3284 10.2345 23.3284 10.5239C23.3284 10.8132 23.5672 11.0477 23.8619 11.0477Z" fill="#D13A52" stroke="#D13A52" stroke-width="0.5"/>
<path d="M23.8617 14.1907C27.1016 14.1944 29.7271 16.7726 29.7309 19.9541C29.7309 20.2434 29.9698 20.478 30.2644 20.478C30.5591 20.478 30.798 20.2434 30.798 19.9541C30.7935 16.1941 27.6906 13.1471 23.8617 13.1428C23.567 13.1428 23.3281 13.3774 23.3281 13.6667C23.3281 13.9561 23.567 14.1907 23.8617 14.1907Z" fill="#D13A52" stroke="#D13A52" stroke-width="0.5"/>
<path d="M23.8617 17.3342C25.3343 17.3359 26.5277 18.5078 26.5295 19.9539C26.5295 20.2433 26.7684 20.4779 27.063 20.4779C27.3576 20.4779 27.5966 20.2433 27.5966 19.9539C27.5942 17.9294 25.9234 16.2886 23.8617 16.2864C23.567 16.2864 23.3281 16.5209 23.3281 16.8103C23.3281 17.0997 23.567 17.3342 23.8617 17.3342Z" fill="#D13A52" stroke="#D13A52" stroke-width="0.5"/>
</svg>
