<svg width="65" height="65" viewBox="0 0 65 65" fill="none" xmlns="http://www.w3.org/2000/svg">
<circle cx="32.5" cy="32.5" r="32.5" transform="rotate(-90 32.5 32.5)" fill="#D13A52"/>
<path d="M51.9342 42.6564C50.8848 40.959 48.1155 40.2099 46.5581 39.9143C43.7157 39.375 40.0526 39.416 38.277 40.7235C37.6926 41.1542 37.4015 42.0441 37.3335 43.6092C37.3245 43.8154 37.3205 44.0169 37.3195 44.2076C34.3027 43.0636 31.5179 41.357 29.1411 39.1953L28.0973 38.1763C25.8863 35.859 24.1399 33.144 22.9687 30.2036C23.1645 30.2026 23.3713 30.1987 23.583 30.19C25.1828 30.1237 26.0925 29.8399 26.5327 29.2702C27.8662 27.5445 27.9145 23.9812 27.3708 21.2154C27.0694 19.6816 26.3024 16.9548 24.5534 15.9243C22.8135 14.8989 20.1242 15.1463 19.0486 15.3004C16.8297 15.618 14.9838 16.3877 14.1105 17.3592C13.3495 18.206 13.0821 20.6223 13.0026 21.6218C13.0004 21.6481 12.9997 21.6751 13.0001 21.7015C13.1311 29.8426 16.3207 37.6166 21.9812 43.5886C21.9888 43.5965 21.9965 43.6076 22.0043 43.6153L23.5912 45.1712C23.599 45.1788 23.6069 45.1996 23.6151 45.2068C29.7309 50.732 37.6895 53.7893 46.0251 53.9995C46.0295 53.9995 46.034 53.9995 46.0384 53.9995C46.0605 53.9995 46.0825 53.9724 46.1046 53.9708C47.127 53.8932 49.5987 53.6062 50.4643 52.8647C51.4602 52.0115 52.2491 50.2076 52.5748 48.039C52.7326 46.9875 52.9862 44.3583 51.9342 42.6564ZM50.8801 47.7935C50.6241 49.4977 50.0044 51.0264 49.3388 51.5966C49.0405 51.8381 47.4922 52.1482 46.0118 52.2645C38.1172 52.1339 30.5816 49.1835 24.7873 43.9537L23.2242 42.4275C17.8687 36.7718 14.8477 29.4177 14.7139 21.7128C14.8322 20.2711 15.1489 18.7627 15.3952 18.4717C15.9807 17.8204 17.5483 17.2147 19.2961 16.9645C21.1294 16.702 22.8064 16.8559 23.6723 17.3663C24.5078 17.8587 25.2807 19.4556 25.6893 21.5341C26.2254 24.2619 26.0085 27.1289 25.1864 28.2302C24.8544 28.4591 23.3491 28.5818 21.9372 28.4988C21.7838 28.4609 21.6182 28.4634 21.4571 28.5162C21.3164 28.5623 21.1961 28.641 21.1016 28.7406C20.9656 28.8778 20.8761 29.0609 20.8609 29.2669C20.8478 29.4445 20.8922 29.6129 20.9782 29.7553C22.1623 33.154 24.0566 36.3017 26.5204 38.9774C26.5495 39.0231 26.5836 39.0667 26.6225 39.1075C26.8764 39.3731 27.1358 39.6338 27.4001 39.8889C27.6619 40.1475 27.9291 40.4012 28.202 40.6495C28.2439 40.6875 28.2885 40.7208 28.3352 40.749C31.0749 43.1534 34.298 45.0027 37.7774 46.1582C37.9223 46.2423 38.0936 46.2857 38.2745 46.2724C38.4857 46.2573 38.6732 46.1679 38.813 46.0325C38.8273 46.0193 38.8402 46.0047 38.8537 45.9906C38.8573 45.9865 38.8611 45.9824 38.8648 45.9782C38.9403 45.8949 39.0018 45.7973 39.0397 45.6848C39.093 45.5268 39.0951 45.3647 39.0561 45.2146C38.9719 43.8397 39.0966 42.375 39.3298 42.0515C40.467 41.2419 43.4228 41.0325 46.2335 41.5658C48.3457 41.9666 49.9693 42.719 50.4702 43.5292C50.9913 44.3725 51.1484 46.0065 50.8801 47.7935Z" fill="white" stroke="white" stroke-width="0.5"/>
<path d="M35.9282 14.8676C44.854 14.8774 52.0873 21.9795 52.0973 30.7433C52.0973 31.2591 52.5231 31.6771 53.0484 31.6771C53.5737 31.6771 53.9995 31.2591 53.9995 30.7433C53.9885 20.9484 45.9042 13.0107 35.9282 13C35.4029 13 34.9771 13.418 34.9771 13.9338C34.9771 14.4496 35.4029 14.8676 35.9282 14.8676Z" fill="white" stroke="white" stroke-width="0.5"/>
<path d="M35.9282 20.4702C41.7036 20.4769 46.3838 25.0721 46.3906 30.7427C46.3906 31.2585 46.8165 31.6765 47.3417 31.6765C47.867 31.6765 48.2928 31.2585 48.2928 30.7427C48.2849 24.041 42.7537 18.6102 35.9282 18.6025C35.4029 18.6025 34.9771 19.0206 34.9771 19.5364C34.9771 20.0521 35.4029 20.4702 35.9282 20.4702Z" fill="white" stroke="white" stroke-width="0.5"/>
<path d="M35.9282 26.0735C38.5533 26.0765 40.6806 28.1652 40.6838 30.7428C40.6838 31.2585 41.1097 31.6766 41.6349 31.6766C42.1601 31.6766 42.586 31.2585 42.586 30.7428C42.5818 27.1342 39.6035 24.2099 35.9282 24.2058C35.4029 24.2058 34.9771 24.6239 34.9771 25.1396C34.9771 25.6554 35.4029 26.0735 35.9282 26.0735Z" fill="white" stroke="white" stroke-width="0.5"/>
</svg>
