<svg width="29" height="29" viewBox="0 0 29 29" fill="none" xmlns="http://www.w3.org/2000/svg">
<path d="M26.6407 20.53C25.9496 19.4122 24.1259 18.9189 23.1002 18.7242C21.2283 18.3691 18.8159 18.3961 17.6466 19.2571C17.2617 19.5407 17.07 20.1268 17.0252 21.1574C17.0193 21.2933 17.0167 21.4259 17.016 21.5515C15.0292 20.7982 13.1952 19.6743 11.6299 18.2507L10.9426 17.5796C9.48644 16.0536 8.33632 14.2657 7.56504 12.3293C7.694 12.3287 7.83015 12.3261 7.96961 12.3204C9.02314 12.2767 9.62224 12.0898 9.91217 11.7146C10.7903 10.5782 10.8221 8.23159 10.4641 6.41022C10.2656 5.40016 9.76051 3.60447 8.60869 2.92579C7.4628 2.25057 5.69172 2.41345 4.9834 2.51494C3.52213 2.72407 2.30644 3.231 1.73131 3.87078C1.23014 4.42838 1.05409 6.01965 1.0017 6.67784C1.00029 6.69515 0.999794 6.71294 1.00008 6.73031C1.08631 12.0916 3.18687 17.2111 6.91468 21.1439C6.91968 21.1491 6.92476 21.1564 6.92991 21.1615L7.97497 22.1861C7.98012 22.1911 7.98534 22.2048 7.99077 22.2095C12.0184 25.8481 17.2596 27.8615 22.7492 27.9999C22.7521 27.9999 22.7551 27.9999 22.758 27.9999C22.7725 27.9999 22.787 27.982 22.8015 27.981C23.4749 27.9298 25.1026 27.7409 25.6727 27.2526C26.3285 26.6907 26.8481 25.5028 27.0626 24.0746C27.1665 23.3822 27.3335 21.6507 26.6407 20.53ZM25.9465 23.913C25.7779 25.0353 25.3698 26.0419 24.9315 26.4175C24.735 26.5765 23.7154 26.7807 22.7404 26.8573C17.5413 26.7713 12.5786 24.8284 8.76268 21.3843L7.73327 20.3792C4.20634 16.6547 2.21683 11.8118 2.12869 6.73779C2.2066 5.78837 2.41516 4.795 2.5774 4.60338C2.96301 4.17446 3.99538 3.77559 5.14642 3.61084C6.35372 3.43798 7.45815 3.53933 8.02842 3.87541C8.57866 4.19966 9.08765 5.25133 9.35671 6.62011C9.70981 8.41649 9.56696 10.3045 9.02554 11.0297C8.80689 11.1805 7.81555 11.2613 6.8857 11.2067C6.78473 11.1817 6.67566 11.1833 6.56954 11.2181C6.4769 11.2485 6.39765 11.3003 6.33546 11.3659C6.24584 11.4562 6.1869 11.5768 6.17689 11.7125C6.16828 11.8294 6.19755 11.9403 6.25416 12.0341C7.03398 14.2723 8.28147 16.3451 9.90406 18.1072C9.92324 18.1373 9.94566 18.166 9.97132 18.1929C10.1385 18.3678 10.3093 18.5395 10.4834 18.7074C10.6558 18.8778 10.8318 19.0448 11.0115 19.2084C11.0391 19.2334 11.0685 19.2553 11.0992 19.2739C12.9035 20.8573 15.0261 22.0751 17.3175 22.8361C17.413 22.8915 17.5258 22.92 17.6449 22.9113C17.784 22.9014 17.9075 22.8424 17.9995 22.7533C18.009 22.7446 18.0174 22.735 18.0263 22.7257C18.0287 22.723 18.0312 22.7203 18.0337 22.7175C18.0834 22.6627 18.1239 22.5984 18.1489 22.5243C18.1839 22.4202 18.1853 22.3135 18.1597 22.2146C18.1042 21.3093 18.1863 20.3447 18.3399 20.1316C19.0888 19.5985 21.0354 19.4606 22.8864 19.8118C24.2775 20.0757 25.3467 20.5712 25.6765 21.1048C26.0198 21.6601 26.1232 22.7362 25.9465 23.913Z" fill="white" stroke="white" stroke-width="0.5"/>
<path d="M16.0989 2.22991C21.9771 2.23632 26.7407 6.91331 26.7473 12.6846C26.7473 13.0242 27.0277 13.2995 27.3737 13.2995C27.7196 13.2995 28 13.0242 28 12.6846C27.9928 6.23429 22.6687 1.00706 16.0989 1C15.7529 1 15.4725 1.2753 15.4725 1.61496C15.4725 1.95461 15.7529 2.22991 16.0989 2.22991Z" fill="white" stroke="white" stroke-width="0.5"/>
<path d="M16.099 5.91952C19.9025 5.92392 22.9848 8.95044 22.9892 12.6852C22.9892 13.0249 23.2697 13.3002 23.6156 13.3002C23.9615 13.3002 24.2419 13.0249 24.2419 12.6852C24.2367 8.27133 20.5941 4.6945 16.099 4.68945C15.7531 4.68945 15.4727 4.96479 15.4727 5.30449C15.4727 5.64419 15.7531 5.91952 16.099 5.91952Z" fill="white" stroke="white" stroke-width="0.5"/>
<path d="M16.099 9.60946C17.8278 9.61148 19.2288 10.9871 19.2309 12.6848C19.2309 13.0245 19.5114 13.2998 19.8573 13.2998C20.2031 13.2998 20.4836 13.0245 20.4836 12.6848C20.4808 10.3081 18.5194 8.38206 16.099 8.37939C15.7531 8.37939 15.4727 8.65473 15.4727 8.99443C15.4727 9.33413 15.7531 9.60946 16.099 9.60946Z" fill="white" stroke="white" stroke-width="0.5"/>
</svg>
