<svg width="91" height="91" viewBox="0 0 91 91" fill="none" xmlns="http://www.w3.org/2000/svg">
<ellipse cx="45.5" cy="45.5" rx="45.5" ry="45.5" transform="rotate(-90 45.5 45.5)" fill="#D13A52"/>
<path d="M67.5317 56.4432C66.2775 54.4145 62.9678 53.5193 61.1065 53.166C57.7094 52.5215 53.3315 52.5705 51.2095 54.1331C50.511 54.6478 50.1631 55.7114 50.0818 57.5819C50.0711 57.8284 50.0663 58.0691 50.065 58.2972C46.4596 56.9299 43.1313 54.8903 40.2908 52.3067L39.0433 51.0888C36.4008 48.3194 34.3136 45.0746 32.9139 41.5604C33.148 41.5592 33.3951 41.5546 33.6481 41.5442C35.56 41.4649 36.6473 41.1258 37.1734 40.4449C38.7671 38.3824 38.8248 34.1238 38.175 30.8183C37.8148 28.9852 36.8982 25.7264 34.8079 24.4947C32.7284 23.2693 29.5143 23.5649 28.2289 23.7491C25.5771 24.1286 23.3709 25.0486 22.3272 26.2097C21.4177 27.2216 21.0982 30.1095 21.0031 31.304C21.0005 31.3354 20.9996 31.3677 21.0001 31.3992C21.1566 41.129 24.9686 50.42 31.7337 57.5573C31.7428 57.5667 31.752 57.5801 31.7613 57.5892L33.6579 59.4487C33.6672 59.4579 33.6767 59.4827 33.6865 59.4913C40.9957 66.0947 50.5073 69.7485 60.4695 69.9998C60.4748 69.9998 60.4801 69.9998 60.4854 69.9998C60.5117 69.9998 60.5381 69.9674 60.5644 69.9655C61.7864 69.8726 64.7404 69.5297 65.7749 68.6435C66.9651 67.6239 67.908 65.4679 68.2972 62.8761C68.4858 61.6195 68.789 58.4772 67.5317 56.4432ZM66.2718 62.5828C65.9659 64.6195 65.2253 66.4464 64.4298 67.128C64.0732 67.4166 62.2229 67.7872 60.4535 67.9262C51.0184 67.7701 42.0124 64.244 35.0874 57.9936L33.2192 56.1696C26.8187 49.4103 23.2082 40.6212 23.0483 31.4128C23.1897 29.6898 23.5682 27.887 23.8626 27.5392C24.5624 26.7608 26.4359 26.0369 28.5247 25.7379C30.7157 25.4242 32.72 25.6082 33.7549 26.2181C34.7534 26.8066 35.6771 28.7151 36.1654 31.1992C36.8062 34.4594 36.5469 37.8858 35.5644 39.2019C35.1676 39.4755 33.3686 39.6221 31.6811 39.523C31.4979 39.4777 31.2999 39.4807 31.1074 39.5438C30.9392 39.5989 30.7954 39.6929 30.6826 39.812C30.5199 39.9759 30.413 40.1948 30.3948 40.441C30.3792 40.6532 30.4323 40.8545 30.535 41.0247C31.9502 45.0866 34.2141 48.8485 37.1587 52.0463C37.1935 52.1009 37.2342 52.1531 37.2808 52.2018C37.5841 52.5193 37.8942 52.8308 38.2101 53.1356C38.5229 53.4448 38.8423 53.7479 39.1685 54.0447C39.2185 54.0902 39.2719 54.1299 39.3276 54.1636C42.602 57.0372 46.4539 59.2473 50.6123 60.6284C50.7856 60.7289 50.9903 60.7807 51.2064 60.7648C51.4589 60.7468 51.6829 60.6399 51.85 60.4781C51.8672 60.4623 51.8825 60.4449 51.8986 60.428C51.903 60.4231 51.9075 60.4182 51.9119 60.4132C52.0021 60.3137 52.0757 60.1971 52.121 60.0625C52.1846 59.8737 52.1872 59.68 52.1406 59.5006C52.0399 57.8574 52.189 56.1069 52.4676 55.7202C53.8268 54.7527 57.3593 54.5025 60.7185 55.1398C63.2429 55.6188 65.1833 56.518 65.7819 57.4863C66.4048 58.4941 66.5925 60.4471 66.2718 62.5828Z" fill="white" stroke="white" stroke-width="0.5"/>
<path d="M48.4029 23.2321C59.0705 23.2437 67.7152 31.7317 67.7272 42.2057C67.7272 42.8221 68.2361 43.3217 68.8639 43.3217C69.4917 43.3217 70.0006 42.8221 70.0006 42.2057C69.9874 30.4994 60.3256 21.0128 48.4029 21C47.7751 21 47.2662 21.4996 47.2662 22.116C47.2662 22.7325 47.7751 23.2321 48.4029 23.2321Z" fill="white" stroke="white" stroke-width="0.5"/>
<path d="M48.4033 29.9281C55.3057 29.9361 60.8991 35.4281 60.9073 42.2051C60.9073 42.8216 61.4162 43.3212 62.0439 43.3212C62.6717 43.3212 63.1806 42.8216 63.1806 42.2051C63.1711 34.1957 56.5606 27.7052 48.4033 27.696C47.7755 27.696 47.2666 28.1957 47.2666 28.8121C47.2666 29.4285 47.7755 29.9281 48.4033 29.9281Z" fill="white" stroke="white" stroke-width="0.5"/>
<path d="M48.4033 36.6249C51.5406 36.6286 54.0831 39.1248 54.0869 42.2054C54.0869 42.8218 54.5959 43.3214 55.2236 43.3214C55.8513 43.3214 56.3603 42.8218 56.3603 42.2054C56.3552 37.8927 52.7957 34.3977 48.4033 34.3928C47.7755 34.3928 47.2666 34.8924 47.2666 35.5089C47.2666 36.1253 47.7755 36.6249 48.4033 36.6249Z" fill="white" stroke="white" stroke-width="0.5"/>
</svg>
