<svg width="91" height="91" viewBox="0 0 91 91" fill="none" xmlns="http://www.w3.org/2000/svg">
<ellipse cx="45.5" cy="45.5" rx="45.5" ry="45.5" transform="rotate(-90 45.5 45.5)" fill="#D13A52"/>
<path d="M67.5317 56.4433C66.2775 54.4146 62.9678 53.5194 61.1065 53.1661C57.7094 52.5216 53.3315 52.5706 51.2095 54.1332C50.511 54.6479 50.1631 55.7115 50.0818 57.582C50.0711 57.8285 50.0663 58.0692 50.065 58.2973C46.4596 56.93 43.1313 54.8904 40.2908 52.3068L39.0433 51.0889C36.4008 48.3195 34.3136 45.0747 32.9139 41.5605C33.148 41.5593 33.3951 41.5547 33.6481 41.5443C35.56 41.465 36.6473 41.1259 37.1734 40.445C38.7671 38.3825 38.8248 34.1239 38.175 30.8184C37.8148 28.9853 36.8982 25.7265 34.8079 24.4948C32.7284 23.2694 29.5143 23.565 28.2289 23.7492C25.5771 24.1287 23.3709 25.0487 22.3272 26.2098C21.4177 27.2217 21.0982 30.1096 21.0031 31.3041C21.0005 31.3355 20.9996 31.3678 21.0001 31.3993C21.1566 41.1291 24.9686 50.4201 31.7337 57.5574C31.7428 57.5668 31.752 57.5802 31.7613 57.5893L33.6579 59.4488C33.6672 59.458 33.6767 59.4828 33.6865 59.4914C40.9957 66.0948 50.5073 69.7486 60.4695 69.9999C60.4748 69.9999 60.4801 69.9999 60.4854 69.9999C60.5117 69.9999 60.5381 69.9675 60.5644 69.9656C61.7864 69.8727 64.7404 69.5298 65.7749 68.6436C66.9651 67.624 67.908 65.468 68.2972 62.8762C68.4858 61.6196 68.789 58.4773 67.5317 56.4433ZM66.2718 62.5829C65.9659 64.6196 65.2253 66.4465 64.4298 67.1281C64.0732 67.4167 62.2229 67.7873 60.4535 67.9263C51.0184 67.7702 42.0124 64.2441 35.0874 57.9937L33.2192 56.1697C26.8187 49.4104 23.2082 40.6213 23.0483 31.4129C23.1897 29.6899 23.5682 27.8871 23.8626 27.5393C24.5624 26.7609 26.4359 26.037 28.5247 25.738C30.7157 25.4243 32.72 25.6083 33.7549 26.2182C34.7534 26.8067 35.6771 28.7152 36.1654 31.1993C36.8062 34.4595 36.5469 37.8859 35.5644 39.202C35.1676 39.4756 33.3686 39.6222 31.6811 39.5231C31.4979 39.4778 31.2999 39.4808 31.1074 39.5439C30.9392 39.599 30.7954 39.693 30.6826 39.8121C30.5199 39.976 30.413 40.1949 30.3948 40.4411C30.3792 40.6533 30.4323 40.8546 30.535 41.0248C31.9502 45.0867 34.2141 48.8486 37.1587 52.0464C37.1935 52.101 37.2342 52.1532 37.2808 52.2019C37.5841 52.5194 37.8942 52.8309 38.2101 53.1357C38.5229 53.4449 38.8423 53.748 39.1685 54.0448C39.2185 54.0903 39.2719 54.13 39.3276 54.1637C42.602 57.0373 46.4539 59.2474 50.6123 60.6285C50.7856 60.729 50.9903 60.7808 51.2064 60.7649C51.4589 60.7469 51.6829 60.64 51.85 60.4782C51.8672 60.4624 51.8825 60.445 51.8986 60.4281C51.903 60.4232 51.9075 60.4183 51.9119 60.4132C52.0021 60.3137 52.0757 60.1972 52.121 60.0626C52.1846 59.8738 52.1872 59.6801 52.1406 59.5007C52.0399 57.8575 52.189 56.107 52.4676 55.7203C53.8268 54.7528 57.3593 54.5026 60.7185 55.1399C63.2429 55.6189 65.1833 56.5181 65.7819 57.4864C66.4048 58.4942 66.5925 60.4472 66.2718 62.5829Z" fill="white" stroke="white" stroke-width="0.5"/>
<path d="M48.4029 23.2321C59.0704 23.2437 67.7152 31.7317 67.7272 42.2057C67.7272 42.8221 68.236 43.3217 68.8639 43.3217C69.4917 43.3217 70.0005 42.8221 70.0005 42.2057C69.9873 30.4994 60.3255 21.0128 48.4029 21C47.7751 21 47.2662 21.4996 47.2662 22.116C47.2662 22.7325 47.7751 23.2321 48.4029 23.2321Z" fill="white" stroke="white" stroke-width="0.5"/>
<path d="M48.4033 29.9281C55.3057 29.9361 60.8991 35.428 60.9073 42.2051C60.9073 42.8215 61.4162 43.3212 62.0439 43.3212C62.6717 43.3212 63.1806 42.8215 63.1806 42.2051C63.1711 34.1957 56.5606 27.7052 48.4033 27.696C47.7755 27.696 47.2666 28.1956 47.2666 28.8121C47.2666 29.4285 47.7755 29.9281 48.4033 29.9281Z" fill="white" stroke="white" stroke-width="0.5"/>
<path d="M48.4033 36.6248C51.5406 36.6285 54.0831 39.1248 54.0869 42.2053C54.0869 42.8217 54.5959 43.3213 55.2236 43.3213C55.8513 43.3213 56.3603 42.8217 56.3603 42.2053C56.3552 37.8926 52.7957 34.3976 48.4033 34.3927C47.7755 34.3927 47.2666 34.8924 47.2666 35.5088C47.2666 36.1252 47.7755 36.6248 48.4033 36.6248Z" fill="white" stroke="white" stroke-width="0.5"/>
</svg>
